Coordinates
version=1
nRows=14
nColumns=33
inDegrees=yes

Units are S.I. units (second, meters, Newtons, ...)
Angles are in degrees.

endheader
time	ground_thorax_rot_x	ground_thorax_rot_y	ground_thorax_rot_z	ground_thorax_tx	ground_thorax_ty	ground_thorax_tz	clav_prot_r	clav_elev_r	scapula_abduction_r	scapula_elevation_r	scapula_upward_rot_r	scapula_winging_r	shoulder_elv_r	plane_of_elev_r	axial_rot_r	elbow_flexion_r	pro_sup_r	wrist_flex_r	wrist_dev_r	clav_prot_l	clav_elev_l	scapula_abduction_l	scapula_elevation_l	scapula_upward_rot_l	scapula_winging_l	shoulder_elv_l	plane_of_elev_l	axial_rot_l	elbow_flexion_l	pro_sup_l	wrist_flex_l	wrist_dev_l
      2.50000000	    -41.96517589	     -7.34126071	      6.69716859	   -137.26749125	    818.71660467	      4.35617116	      7.60577610	    -45.00000000	     45.00000000	    -45.00000000	    -19.54399161	  -1895.63680220	  -1006.21575693	     32.90054807	     40.27568975	     11.32770837	     24.50570407	     19.14270760	      9.28446097	     16.83573797	     43.05404352	    -45.00000000	    -45.00000000	    -28.61212691	   2244.78552001	  -3528.58164175	     28.54289272	      8.20150370	      7.01021096	     28.54937596	      8.99126918	    -21.77264819
      2.51000000	    -41.97102155	     -7.48329277	      7.05564466	   -142.46943605	    819.36060978	      4.10858907	      7.76165273	    -45.00000000	     45.00000000	    -45.00000000	    -20.40943072	  -1896.14329809	  -1006.05628899	     32.87498850	     40.47548117	     11.41136564	     24.89692490	     19.18729164	      9.18775058	     16.94155382	     42.83422848	    -45.00000000	    -45.00000000	    -29.56935478	   2245.10767756	  -3528.55055775	     28.41375778	      7.61649320	      7.09290015	     27.92629439	      9.02193950	    -21.78103470
      2.52000000	    -41.93228344	     -7.85564257	      7.64643083	   -147.66114520	    819.95932210	      3.85649278	      7.99975056	    -45.00000000	     45.00000000	    -45.00000000	    -21.70681951	  -1896.61382283	  -1005.88569406	     32.90120857	     40.76021876	     11.39817764	     25.40199073	     19.18415349	      8.99625958	     17.19042174	     42.62866647	    -45.00000000	    -45.00000000	    -30.91804462	   2245.36067258	  -3528.46220396	     28.29203733	      7.60578754	      7.11408908	     27.13783289	      9.11582421	    -21.78317335
      2.53000000	    -41.90842861	     -8.24461981	      8.22622167	   -152.83310837	    820.51547484	      3.60294951	      8.32412064	    -45.00000000	     45.00000000	    -45.00000000	    -23.33819301	  -1897.03435966	  -1005.69853680	     32.91751357	     41.08521181	     11.61512352	     26.06296799	     19.18944451	      8.69939751	     17.15160574	     42.46084858	    -44.43665357	    -45.00000000	    -32.21238212	   2245.19226055	  -3527.94274951	     28.33434288	      8.05381581	      6.98200357	     26.21751623	      9.46598232	    -21.80527287
      2.54000000	    -41.82692472	     -8.62051654	      8.73115253	   -157.96612641	    821.03222339	      3.35165756	      8.62669580	    -45.00000000	     45.00000000	    -45.00000000	    -24.55911010	  -1897.45789117	  -1005.54166619	     32.94969358	     41.35175113	     11.66455791	     26.82706862	     19.21738260	      8.58355766	     17.08900341	     42.08349532	    -43.91528313	    -45.00000000	    -33.29232370	   2245.23529532	  -3527.74303244	     28.36330217	      8.07805113	      6.96154129	     25.48145636	      9.60624735	    -21.80162830
      2.55000000	    -41.81304167	     -8.69517537	      8.97548092	   -163.07471329	    821.51195225	      3.10306404	      8.80893382	    -45.00000000	     45.00000000	    -45.00000000	    -25.24912957	  -1897.82523408	  -1005.49652759	     32.83202004	     41.58674539	     11.67317802	     27.54244632	     19.30620755	      8.64527649	     17.03088393	     41.73238766	    -43.65265788	    -45.00000000	    -33.82606740	   2245.42351328	  -3527.76316673	     28.25937577	      7.46059981	      6.89859858	     25.06059367	      9.56832293	    -21.78940894
      2.56000000	    -41.92339712	     -8.32049651	      8.61873421	   -168.10943096	    821.96359696	      2.86406848	      8.93677420	    -45.00000000	     45.00000000	    -45.00000000	    -25.33883880	  -1898.05294799	  -1005.55390951	     32.74933744	     41.65229389	     11.57485146	     28.10774197	     19.23772064	      8.46049823	     16.51560081	     41.92450034	    -43.26535251	    -45.00000000	    -33.71457929	   2245.90207314	  -3527.92025960	     28.54107893	      6.21137438	      6.79427400	     24.96177489	     10.03651778	    -21.92397344
      2.57000000	    -41.68235670	     -9.14873215	      9.91943345	   -173.03283501	    822.39542570	      2.63910393	      9.17409900	    -45.00000000	     44.22262452	    -45.00000000	    -28.50350165	  -1898.20081403	  -1005.09981401	     32.95840419	     42.58654094	     11.89298303	     29.23644448	     19.23603680	      8.10801102	     16.77387653	     41.31777555	    -42.86674551	    -45.00000000	    -36.31559712	   2245.31028718	  -3527.10854459	     28.43949198	      8.19640435	      6.71566676	     23.67168601	     10.15700306	    -21.83730965
      2.58000000	    -41.63921780	     -9.30624809	     10.20447425	   -177.79241397	    822.81556252	      2.43704532	      9.25769041	    -45.00000000	     44.06713023	    -45.00000000	    -29.18506820	  -1898.59227493	  -1005.11579497	     32.90921540	     43.28683292	     12.02837445	     30.10669394	     19.37490765	      8.20724452	     16.89407050	     40.79023879	    -42.56492961	    -45.00000000	    -36.78463753	   2245.55329632	  -3527.24461328	     28.31117019	      7.29538648	      6.70035765	     23.47584957	      9.94509477	    -21.85146250
      2.59000000	    -41.55359590	     -9.64999264	     10.83459590	   -182.39261881	    823.22621331	      2.25368839	      9.32227056	    -45.00000000	     43.64661759	    -45.00000000	    -30.81613612	  -1898.81511955	  -1004.95256855	     32.93687785	     44.37920865	     12.18262827	     31.01711091	     19.36773737	      8.00091262	     16.88229216	     40.46922752	    -42.20794395	    -45.00000000	    -37.88631303	   2245.58449597	  -3527.07043915	     28.28979444	      7.00742265	      6.61628701	     23.08647497	      9.96983915	    -21.86591595
      2.60000000	    -41.43383407	    -10.06588430	     11.55098947	   -186.79338562	    823.62594710	      2.08670256	      9.37117873	    -45.00000000	     43.22798354	    -45.00000000	    -32.53626085	  -1899.08088879	  -1004.80351845	     32.93291018	     45.50005238	     12.42261145	     31.95673952	     19.35326473	      7.75677123	     16.81219311	     40.12998658	    -41.90461149	    -45.00000000	    -39.03649675	   2245.64301757	  -3526.95397361	     28.24544042	      6.84007046	      6.54898937	     22.69212007	     10.05554594	    -21.89975146
      2.61000000	    -41.34229697	    -10.39210522	     12.13012130	   -191.00477185	    824.00333995	      1.92383886	      9.43260437	    -45.00000000	     42.88812524	    -45.00000000	    -33.90569413	  -1899.34584238	  -1004.75502960	     32.88424633	     46.45660033	     12.56743444	     32.90160653	     19.34244591	      7.56501980	     16.71894393	     39.80498937	    -41.58956147	    -45.00000000	    -40.06294104	   2245.83038009	  -3526.92357240	     28.29656941	      6.28389129	      6.48436629	     22.46663266	     10.13727704	    -21.95584444
      2.62000000	    -41.21174011	    -10.85026392	     12.91953217	   -195.04321422	    824.35557027	      1.75935961	      9.47582444	    -45.00000000	     42.13011979	    -45.00000000	    -36.66883305	  -1899.42651782	  -1004.48680033	     33.18517262	     46.82893052	     12.75379655	     34.37596433	     19.15283721	      7.01920002	     16.44778910	     39.75330477	    -41.18683597	    -45.00000000	    -41.67032126	   2245.66092573	  -3526.39733599	     28.47939347	      7.73672755	      6.17646525	     21.67010153	     10.73226511	    -21.96221502
      2.63000000	    -41.10533734	    -11.01589406	     13.36394016	   -198.92974494	    824.66787149	      1.58479993	      9.56295031	    -45.00000000	     41.98576205	    -45.00000000	    -37.54547315	  -1899.78502055	  -1004.50053092	     33.05447057	     47.89194249	     12.97164768	     35.80764666	     19.26668599	      6.96715028	     16.52783159	     39.34422624	    -41.02794109	    -45.00000000	    -42.44926435	   2245.74096023	  -3526.44657509	     28.30211893	      6.94341913	      6.24172204	     21.64928190	     10.39697270	    -22.00922847
